<svg fill="#ffffff" height="200px" width="200px" version="1.1" id="Capa_1" xmlns="http://www.w3.org/2000/svg" xmlns:xlink="http://www.w3.org/1999/xlink" viewBox="0 0 310 310" xml:space="preserve" stroke="#ffffff">
    <g id="SVGRepo_bgCarrier" stroke-width="0"></g>
    <g id="SVGRepo_tracerCarrier" stroke-linecap="round" stroke-linejoin="round"></g>
    <g id="SVGRepo_iconCarrier">
        <g>
            <polygon points="253.381,206.25 253.381,299.157 253.381,299.465 310,299.465 310,238.977 "></polygon>
            <polygon points="0,299.465 56.619,299.465 56.619,299.157 56.619,206.178 0,238.977 "></polygon>
            <path d="M66.619,174.559v124.598h58.047v-52.825c0-16.568,13.432-30,30-30h0.668c16.568,0,30,13.432,30,30v52.825h58.047V174.559 L155,101.247L66.619,174.559z"></path>
            <polygon points="27.502,161.587 42.498,179.785 155,87.083 267.502,179.785 282.498,161.587 162,62.297 162,40.202 183.631,40.202 183.631,26.202 162,26.202 162,10.535 148,10.535 148,26.202 126.369,26.202 126.369,40.202 148,40.202 148,62.297 "></polygon>
        </g>
    </g>
</svg>
