<svg fill="#A8A8A8" height="200px" width="200px" version="1.1" id="Capa_1" xmlns="http://www.w3.org/2000/svg" xmlns:xlink="http://www.w3.org/1999/xlink" viewBox="0 0 491.4 491.4" xml:space="preserve"><g id="SVGRepo_bgCarrier" stroke-width="0"></g><g id="SVGRepo_tracerCarrier" stroke-linecap="round" stroke-linejoin="round"></g><g id="SVGRepo_iconCarrier"> <g> <path d="M89.6,224.6c11.6,0,21,9.4,21,21c0,11.6-9.4,21-21,21c-11.6,0-21-9.4-21-21C68.5,234,77.9,224.6,89.6,224.6z M34.7,369.4 H282c-0.8-2.6-1.2-5.3-1.2-8.1v-21.5H70.3c0.4-2.1,0.6-4.2,0.6-6.5c0-19.4-15.7-35.1-35.1-35.1c-2.1,0-4.2,0.2-6.2,0.6V192.4 c2,0.4,4.1,0.6,6.2,0.6c19.4,0,35.1-15.7,35.1-35.1c0-2.2-0.2-4.4-0.6-6.5h257.4c-0.7,2.7-1.1,5.6-1.1,8.6 c0,15.3,9.9,28.3,23.6,33.1c1.7-14.2,13.8-25.3,28.4-25.3H400v-11.3c0-19.1-15.5-34.6-34.7-34.6H34.7C15.6,121.9,0,137.4,0,156.5 v178.3C0,353.8,15.6,369.4,34.7,369.4z M309.5,246.5c-4.5,0-8.1,3.6-8.1,8.1v106.7c0,4.5,3.6,8.1,8.1,8.1h35.7 c4.5,0,8.1-3.6,8.1-8.1V254.6c0-4.5-3.6-8.1-8.1-8.1H309.5z M414.2,188.3h-35.7c-4.5,0-8.1,3.6-8.1,8.1v164.9 c0,4.5,3.6,8.1,8.1,8.1h35.7c4.5,0,8.1-3.6,8.1-8.1V196.4C422.3,192,418.7,188.3,414.2,188.3z M483.3,283.7h-35.7 c-4.5,0-8.1,3.6-8.1,8.1v69.6c0,4.5,3.6,8.1,8.1,8.1h35.7c4.5,0,8.1-3.6,8.1-8.1v-69.6C491.4,287.3,487.7,283.7,483.3,283.7z M200,169.7c41.8,0,75.9,34,75.9,75.9c0,41.8-34,75.9-75.9,75.9c-41.8,0-75.9-34-75.9-75.9C124.1,203.8,158.1,169.7,200,169.7z M224.1,214l-33.9,33.7L176,233.4l-14.8,14.7l14.2,14.3l14.7,14.8l14.8-14.7l33.9-33.7L224.1,214z"></path> </g> </g></svg>
